<?xml version="1.0" encoding="iso-8859-1"?>
<!-- Generator: Adobe Illustrator 19.0.0, SVG Export Plug-In . SVG Version: 6.00 Build 0)  -->
<svg version="1.1" id="Layer_1" xmlns="http://www.w3.org/2000/svg" xmlns:xlink="http://www.w3.org/1999/xlink" x="0px" y="0px"
	 viewBox="0 0 512.003 512.003" style="enable-background:new 0 0 512.003 512.003;" xml:space="preserve">
<rect x="316.627" y="344.339" transform="matrix(-0.7071 -0.7071 0.7071 -0.7071 360.0274 869.1524)" style="fill:#003DA6;" width="86.788" height="31.347"/>
<polygon style="fill:#FF0035;" points="512.001,461.353 406.618,355.969 381.294,381.293 421.324,446.646 486.677,486.676 "/>
<path style="fill:#2E6BD6;" d="M59.845,59.844L59.845,59.844l122.308,166.639l166.639,122.308l0,0
	c79.79-79.79,79.79-209.157,0-288.948C269.002-19.948,139.635-19.948,59.845,59.844z"/>
<path style="fill:#6396ED;" d="M59.845,59.844c-79.79,79.79-79.79,209.157,0,288.948s209.157,79.79,288.948,0L59.845,59.844z"/>
<path style="fill:#E3D6D8;" d="M98.428,98.427L98.428,98.427l83.725,128.056l128.056,83.726l0,0
	c58.388-58.388,58.388-153.393,0-211.781S156.817,40.038,98.428,98.427z"/>
<path style="fill:#F5F2F3;" d="M98.428,98.427c-58.388,58.389-58.388,153.393,0,211.782c58.388,58.388,153.393,58.388,211.781,0
	L98.428,98.427z"/>
<rect x="403.407" y="372.136" transform="matrix(-0.7071 0.7071 -0.7071 -0.7071 1035.0544 464.5713)" style="fill:#FF5450;" width="35.808" height="149.032"/>
<path style="fill:#FF8600;" d="M284.261,146.541l-22.165-22.165l-21.061,21.061c-6.58-4.103-13.695-7.004-21.042-8.696v-29.806
	h-31.347v29.806c-7.347,1.692-14.463,4.592-21.042,8.696l-21.061-21.061l-11.083,11.083l16.004,30.781l25.946,11.169
	c14.839-14.839,38.982-14.839,53.821,0c14.839,14.839,14.839,38.982,0,53.821l11.852,26.629l30.097,15.32l11.083-11.083
	l-21.061-21.061c4.103-6.58,7.004-13.695,8.696-21.042h29.806v-31.347h-29.806c-1.692-7.347-4.592-14.462-8.696-21.042
	L284.261,146.541z"/>
<path style="fill:#FFAC00;" d="M177.408,231.228c-14.839-14.839-14.839-38.982,0-53.821l-41.95-41.95l-11.083,11.083l21.061,21.061
	c-4.103,6.58-7.004,13.695-8.696,21.042h-29.805v31.347h29.805c1.692,7.347,4.592,14.462,8.696,21.042l-21.061,21.061l22.165,22.165
	l21.061-21.061c6.58,4.103,13.695,7.005,21.042,8.696V301.7h31.347v-29.806c7.347-1.692,14.462-4.593,21.042-8.696l21.061,21.061
	l11.083-11.083l-41.95-41.95C216.39,246.065,192.247,246.065,177.408,231.228z"/>
<g>
</g>
<g>
</g>
<g>
</g>
<g>
</g>
<g>
</g>
<g>
</g>
<g>
</g>
<g>
</g>
<g>
</g>
<g>
</g>
<g>
</g>
<g>
</g>
<g>
</g>
<g>
</g>
<g>
</g>
</svg>
